<svg xmlns="http://www.w3.org/2000/svg" xmlns:xlink="http://www.w3.org/1999/xlink" viewBox="0,0,256,256" width="100px" height="100px" fill-rule="nonzero"><g fill="#ffffff" fill-rule="nonzero" stroke="none" stroke-width="1" stroke-linecap="butt" stroke-linejoin="miter" stroke-miterlimit="10" stroke-dasharray="" stroke-dashoffset="0" font-family="none" font-weight="none" font-size="none" text-anchor="none" style="mix-blend-mode: normal"><g transform="scale(2.56,2.56)"><path d="M30.6543,17.57422c-7.168,0 -13,5.832 -13,13v39c0,7.168 5.832,13 13,13h39c7.168,0 13,-5.832 13,-13v-39c0,-7.168 -5.832,-13 -13,-13zM30.6543,19.57422h39c6.065,0 11,4.935 11,11v39c0,6.065 -4.935,11 -11,11h-39c-6.065,0 -11,-4.935 -11,-11v-39c0,-6.065 4.935,-11 11,-11zM33.49023,22.57422c-5.976,0 -10.83789,4.86189 -10.83789,10.83789v33.32617c0,5.976 4.86189,10.83594 10.83789,10.83594h33.32617c5.976,0 10.83594,-4.85994 10.83594,-10.83594v-18.66406c0.001,-0.277 -0.22205,-0.5 -0.49805,-0.5c-0.276,0 -0.5,0.224 -0.5,0.5v18.66406c0,5.424 -4.41389,9.83594 -9.83789,9.83594h-33.32617c-5.424,0 -9.83789,-4.41194 -9.83789,-9.83594v-33.32617c0,-5.424 4.41389,-9.83789 9.83789,-9.83789h33.66211c0.276,0 0.5,-0.224 0.5,-0.5c0,-0.276 -0.224,-0.5 -0.5,-0.5zM77.1543,36.57422c-0.276,0 -0.5,0.223 -0.5,0.5v2c0,0.276 0.224,0.5 0.5,0.5c0.276,0 0.5,-0.224 0.5,-0.5v-2c0,-0.276 -0.224,-0.5 -0.5,-0.5zM33.62305,39.05664c-0.159,0 -0.30639,0.07512 -0.40039,0.20313c-0.094,0.127 -0.12217,0.29236 -0.07617,0.44336l6.41992,20.88672c0.064,0.21 0.25852,0.35352 0.47852,0.35352h5.69531c0.214,0 0.40366,-0.13784 0.47266,-0.33984l3.63672,-10.67773l3.45898,10.67188c0.067,0.206 0.25761,0.3457 0.47461,0.3457h5.71094c0.216,0 0.40856,-0.13875 0.47656,-0.34375l6.87891,-20.88672c0.05,-0.152 0.02369,-0.31922 -0.07031,-0.44922c-0.094,-0.13 -0.2443,-0.20703 -0.4043,-0.20703h-5.83984c-0.221,0 -0.41452,0.14547 -0.47852,0.35547l-3.60156,11.94141l-3.75586,-11.94727c-0.065,-0.208 -0.25856,-0.34961 -0.47656,-0.34961h-4.44922c-0.214,0 -0.40561,0.13684 -0.47461,0.33984l-4.03711,11.95313l-3.30469,-11.92578c-0.06,-0.216 -0.25742,-0.36719 -0.48242,-0.36719zM34.30078,40.05664h4.79492l3.63672,13.12891c0.059,0.211 0.24975,0.36119 0.46875,0.36719c0.227,-0.006 0.41633,-0.13284 0.48633,-0.33984l4.44531,-13.15625h3.72266l4.13281,13.14648c0.065,0.208 0.26052,0.34961 0.47852,0.34961h0.00195c0.219,-0.001 0.41356,-0.14647 0.47656,-0.35547l3.96094,-13.13867h4.77734l-6.54883,19.88477h-4.98633l-3.8125,-11.75781c-0.066,-0.205 -0.25666,-0.3437 -0.47266,-0.3457h-0.00195c-0.215,0 -0.40561,0.13684 -0.47461,0.33984l-4.00391,11.76367h-4.96875zM77.1543,40.57422c-0.276,0 -0.5,0.224 -0.5,0.5v4c0,0.276 0.224,0.5 0.5,0.5c0.276,0 0.5,-0.224 0.5,-0.5v-4c0,-0.277 -0.224,-0.5 -0.5,-0.5z"></path></g></g></svg>